<svg xmlns="http://www.w3.org/2000/svg"
	 viewBox="0 0 612 792" style="enable-background:new 0 0 612 792;" xml:space="preserve">

<g>
	<g>
		<path class="st0" d="M217.35,594.15c44.2-27.91,71.58-72.67,102.57-113.35c17.28-22.67,37.2-42.57,57.23-62.77
			c10.13-10.21,19.86-20.77,28.64-32.18c8.62-11.2,15.41-24.3,22.76-36.36c8.68-14.24,17.32-28.51,26.32-42.55
			c1.75-2.72-2.58-5.23-4.32-2.52c-15.54,24.22-30,49.1-45.4,73.41c-7.98,12.59-18.7,23.55-29.08,34.17
			c-10.25,10.48-20.85,20.61-30.93,31.26c-36,38.03-61.03,85.14-98.69,121.65c-9.67,9.37-20.24,17.74-31.63,24.93
			C212.11,591.55,214.62,595.88,217.35,594.15L217.35,594.15z"/>
	</g>
</g>
<g>
	<g>
		<path class="st0" d="M217.55,594.03c-4.84-12.53-12.87-22.46-23.92-30.05c-10.5-7.21-22.84-11.53-34.73-15.8
			c-12.2-4.38-24.45-8.68-35.51-15.56c-11.81-7.36-20.57-18.17-25.41-31.21c-2.22-5.99-11.89-3.4-9.64,2.66
			c5.06,13.64,13.24,24.83,24.82,33.63c10.42,7.92,22.91,12.79,35.1,17.26c23.3,8.54,49.85,16.31,59.66,41.74
			C210.2,602.64,219.87,600.06,217.55,594.03L217.55,594.03z"/>
	</g>
</g>
<g>
	<g>
		<path class="st0" d="M90.63,507.05c4.97,3.28,9.95,5.61,16,5.73c6.45,0.13,6.44-9.87,0-10c-4.23-0.09-7.49-2.09-10.95-4.37
			C90.27,494.86,85.27,503.52,90.63,507.05L90.63,507.05z"/>
	</g>
</g>
<g>
	<g>
		<path class="st0" d="M112.62,505.26c-19.08-33.69-29.29-71.96-23.07-110.67c1.01-6.31-8.62-9.01-9.64-2.66
			c-6.67,41.5,3.57,82.16,24.08,118.38C107.17,515.92,115.81,510.88,112.62,505.26L112.62,505.26z"/>
	</g>
</g>
<g>
	<g>
		<path class="st0" d="M79.7,395.89c0.86,3.34,2.05,6.51,4.25,9.2c2.19,2.68,5.32,4.43,8.36,5.97c5.74,2.9,10.8-5.72,5.05-8.63
			c-2.31-1.17-4.36-2.29-5.73-3.69c-1.02-1.04,0.45,0.74-0.38-0.46c-0.37-0.54-0.66-1.13-0.94-1.72c0.38,0.79-0.3-0.92-0.28-0.85
			c-0.27-0.81-0.48-1.64-0.7-2.46C87.74,386.99,78.09,389.64,79.7,395.89L79.7,395.89z"/>
	</g>
</g>
<g>
	<g>
		<path class="st0" d="M101.34,405.41c-5-31.9-8.18-64.04-8.24-96.35c-0.01-6.45-10.01-6.45-10,0c0.06,33.21,3.46,66.23,8.6,99.01
			C92.69,414.42,102.33,411.72,101.34,405.41L101.34,405.41z"/>
	</g>
</g>
<g>
	<g>
		<path class="st0" d="M83.27,308.7c1.94,7.28,6.26,12.31,12.4,16.46c5.36,3.62,10.36-5.04,5.05-8.63c-4-2.7-6.55-5.77-7.81-10.48
			C91.26,299.82,81.62,302.46,83.27,308.7L83.27,308.7z"/>
	</g>
</g>
<g>
	<g>
		<path class="st0" d="M104.71,322.17c8.08-32.51,13.92-66.6,37.45-92.11c4.36-4.73-2.69-11.82-7.07-7.07
			c-24.85,26.95-31.48,62.13-40.02,96.52C93.51,325.78,103.15,328.43,104.71,322.17L104.71,322.17z"/>
	</g>
</g>
<g>
	<g>
		<path class="st0" d="M133.8,225.2c-0.82,3.52-1.13,7.02-0.11,10.54c1.07,3.73,3.8,6.79,6.45,9.49c4.53,4.6,11.59-2.47,7.07-7.07
			c-3.2-3.25-4.83-5.69-3.77-10.29C144.9,221.59,135.25,218.92,133.8,225.2L133.8,225.2z"/>
	</g>
</g>
<g>
	<g>
		<path class="st0" d="M149.68,244.21c16.1-28.05,46.38-45.89,57.77-76.98c2.22-6.07-7.44-8.66-9.64-2.66
			c-5.42,14.79-16.43,26.66-27,37.98c-10.73,11.5-21.87,22.88-29.76,36.61C137.82,244.77,146.47,249.8,149.68,244.21L149.68,244.21z
			"/>
	</g>
</g>
<g>
	<g>
		<path class="st0" d="M197.8,167.23c1.41,6.87,3.1,13.51,3.19,20.57c0.09,6.44,10.09,6.45,10,0c-0.11-7.94-1.96-15.49-3.55-23.22
			C206.15,158.26,196.51,160.94,197.8,167.23L197.8,167.23z"/>
	</g>
</g>
<g>
	<g>
		<path class="st0" d="M209.52,191.33c19.47-24.1,44.86-41.33,73.58-52.61c5.93-2.33,3.35-12-2.66-9.64
			c-30.31,11.9-57.41,29.7-77.99,55.18C198.44,189.23,205.47,196.35,209.52,191.33L209.52,191.33z"/>
	</g>
</g>
<g>
	<g>
		<path class="st0" d="M276.78,133.9c0,5.61,0,11.23,0,16.84c0,6.45,10,6.45,10,0c0-5.61,0-11.23,0-16.84
			C286.78,127.45,276.78,127.45,276.78,133.9L276.78,133.9z"/>
	</g>
</g>
<g>
	<g>
		<path class="st0" d="M283.1,157.25c22.34-5.53,37.07-25.43,58.95-32c6.16-1.85,3.53-11.5-2.66-9.64
			c-10.94,3.29-20.36,9.28-29.56,15.88c-9.16,6.58-18.25,13.36-29.38,16.12C274.19,149.15,276.84,158.8,283.1,157.25L283.1,157.25z"
			/>
	</g>
</g>
<g>
	<g>
		<path class="st0" d="M335.9,121.76c0.62,2.28,0.04,4.53-0.3,6.81c-0.42,2.85-0.47,5.54,0.3,8.34c1.7,6.21,11.34,3.57,9.64-2.66
			c-0.62-2.28-0.04-4.53,0.3-6.82c0.42-2.85,0.47-5.54-0.3-8.34C343.84,112.89,334.2,115.53,335.9,121.76L335.9,121.76z"/>
	</g>
</g>
<g>
	<g>
		<path class="st0" d="M342.05,140.41c26.35-5.67,44.06-28.39,69.05-37.05c6.05-2.1,3.45-11.76-2.66-9.64
			c-24.92,8.64-43.02,31.45-69.05,37.05C333.09,132.12,335.76,141.76,342.05,140.41L342.05,140.41z"/>
	</g>
</g>
<g>
	<g>
		<path class="st0" d="M404.77,99.75c0,5.21,0,10.42,0,15.63c0,6.45,10,6.45,10,0c0-5.21,0-10.42,0-15.63
			C414.77,93.3,404.77,93.3,404.77,99.75L404.77,99.75z"/>
	</g>
</g>
<g>
	<g>
		<path class="st0" d="M412.3,119.69c22.74-11.66,40.79-31.98,55.69-52.32c3.82-5.21-4.87-10.19-8.63-5.05
			c-13.89,18.97-30.91,37.87-52.1,48.73C401.51,114,406.57,122.63,412.3,119.69L412.3,119.69z"/>
	</g>
</g>
<g>
	<g>
		<path class="st0" d="M458.84,66.18c1.09,3.62-0.08,6.79-0.18,10.46c-0.18,6.45,9.82,6.44,10,0c0.05-1.71,0.44-3.58,0.67-5.6
			c0.28-2.51-0.12-5.12-0.84-7.52C466.63,57.36,456.98,59.99,458.84,66.18L458.84,66.18z"/>
	</g>
</g>
<g>
	<g>
		<path class="st0" d="M466.19,82.64c24.7-12.66,41.45-36,55.69-59.06c3.4-5.5-5.25-10.52-8.63-5.05
			c-13.38,21.67-28.88,43.57-52.1,55.47C455.4,76.95,460.46,85.58,466.19,82.64L466.19,82.64z"/>
	</g>
</g>
<g>
	<g>
		<path class="st0" d="M512.74,22.39c4.67,33.93-0.02,68.16-5.05,101.76c-0.94,6.31,8.69,9.02,9.64,2.66
			c5.32-35.54,9.99-71.21,5.05-107.08C521.5,13.37,511.87,16.09,512.74,22.39L512.74,22.39z"/>
	</g>
</g>
<g>
	<g>
		<path class="st0" d="M515.03,129.8c9.69-4.23,13.77-14,17.45-23.2c2.4-5.99-7.28-8.57-9.64-2.66
			c-2.78,6.93-5.61,14.05-12.86,17.22C504.09,123.74,509.18,132.35,515.03,129.8L515.03,129.8z"/>
	</g>
</g>
<g>
	<g>
		<path class="st0" d="M522.66,105.27c1.51,23.09-6.43,45.53-11.61,67.72c-1.47,6.27,8.18,8.94,9.64,2.66
			c5.38-23.03,13.53-46.41,11.97-70.38C532.25,98.87,522.24,98.83,522.66,105.27L522.66,105.27z"/>
	</g>
</g>
<g>
	<g>
		<path class="st0" d="M515.87,179.32c6.34-0.12,12.35-2.12,17.01-6.52c4.7-4.43-2.38-11.49-7.07-7.07
			c-2.72,2.56-6.28,3.52-9.94,3.59C509.43,169.45,509.42,179.45,515.87,179.32L515.87,179.32z"/>
	</g>
</g>
<g>
	<g>
		<path class="st0" d="M525.03,166.75c-8.46,18.34-19.92,34.97-30.32,52.21c-3.34,5.54,5.31,10.56,8.63,5.05
			c10.4-17.24,21.86-33.87,30.32-52.21C536.35,165.98,527.73,160.9,525.03,166.75L525.03,166.75z"/>
	</g>
</g>
<g>
	<g>
		<path class="st0" d="M499.03,226.48c4.54-0.1,8.94-1.58,13.48-1.68c6.44-0.15,6.45-10.15,0-10c-4.54,0.1-8.94,1.58-13.48,1.68
			C492.59,216.63,492.58,226.63,499.03,226.48L499.03,226.48z"/>
	</g>
</g>
<g>
	<g>
		<path class="st0" d="M508.19,217.27c-18.78,32.45-38.21,68.34-70.63,89.15c-5.41,3.47-0.4,12.13,5.05,8.63
			c33.99-21.81,54.5-58.69,74.21-92.74C520.06,216.73,511.42,211.69,508.19,217.27L508.19,217.27z"/>
	</g>
</g>
<g>
	<g>
		<path class="st0" d="M428.35,293.9c0.22,7.17,3.28,15.11,8.2,20.38c4.41,4.72,11.47-2.37,7.07-7.07
			c-3.08-3.3-5.14-8.83-5.27-13.31C438.16,287.47,428.16,287.45,428.35,293.9L428.35,293.9z"/>
	</g>
</g>
<g>
	<g>
		<path class="st0" d="M426.84,294.25c-2.16,13.02-8.44,25.1-14.9,36.46c-7.07,12.42-15.21,24.35-24.23,35.44
			c-4.03,4.96,3,12.08,7.07,7.07c9.25-11.38,17.61-23.49,25.03-36.14c7.22-12.32,14.31-25.94,16.68-40.17
			C437.54,290.61,427.9,287.9,426.84,294.25L426.84,294.25z"/>
	</g>
</g>
<g>
	<g>
		<path class="st0" d="M396.25,369.69c-0.26-7.56-3.31-14.34-5.23-21.54c-1.66-6.23-11.31-3.58-9.64,2.66
			c1.67,6.25,4.65,12.35,4.88,18.88C386.47,376.12,396.47,376.14,396.25,369.69L396.25,369.69z"/>
	</g>
</g>
<g>
	<g>
		<path class="st0" d="M381.88,345.27c-16.46,29.29-40.73,53.58-52.71,85.4c-2.28,6.05,7.39,8.63,9.64,2.66
			c11.62-30.85,35.73-54.58,51.7-83.01C393.67,344.69,385.03,339.65,381.88,345.27L381.88,345.27z"/>
	</g>
</g>
<g>
	<g>
		<path class="st0" d="M338.3,429.48c-3.44-6.56-8.88-11.62-11.79-18.53c-1.06-2.51-4.72-3.04-6.84-1.79
			c-2.58,1.51-2.85,4.33-1.79,6.84c2.91,6.9,8.35,11.97,11.79,18.53C332.67,440.24,341.3,435.18,338.3,429.48L338.3,429.48z"/>
	</g>
</g>
<g>
	<g>
		<path class="st0" d="M317.88,410.95c-13.55,26.77-33.25,49.99-45.47,77.47c-2.6,5.84,6.02,10.93,8.63,5.05
			c12.22-27.48,31.93-50.7,45.47-77.47C329.42,410.26,320.79,405.2,317.88,410.95L317.88,410.95z"/>
	</g>
</g>
<g>
	<g>
		<path class="st0" d="M280.26,487.41c-3.93-3.86-8.93-7.41-10.5-12.95c-1.76-6.19-11.41-3.56-9.64,2.66
			c2.11,7.43,7.79,12.17,13.07,17.36C277.79,499,284.87,491.93,280.26,487.41L280.26,487.41z"/>
	</g>
</g>
<g>
	<g>
		<path class="st0" d="M259.93,475.79c-2.24,22.91-10.6,46.06-25.62,63.71c-13.07,15.36-29.56,28.99-29.96,50.81
			c-0.12,6.45,9.88,6.44,10,0c0.38-20.74,19.64-33.81,31.19-48.86c14.39-18.75,22.1-42.31,24.39-65.66
			C270.56,469.37,260.56,469.43,259.93,475.79L259.93,475.79z"/>
	</g>
</g>
<g>
	<g>
		<path class="st0" d="M248.53,761.83c-10.9-7.14-17.64-18.9-22.21-30.81c-5.73-14.92-8.52-30.96-10.3-46.78
			c-3.33-29.53-2.47-59.22-2.45-88.87c0-5.43-8.42-5.43-8.42,0c-0.02,31.34-0.85,62.68,3.04,93.86
			c3.52,28.18,10.52,63.13,36.09,79.88C248.84,772.09,253.05,764.79,248.53,761.83L248.53,761.83z"/>
	</g>
</g>
<g>
	<g>
		<path class="st0" d="M216.94,590.31c0.69,25.22-1.95,50.65,0.77,75.79c2.82,26.09,13.89,48.76,30.78,68.66
			c3.52,4.15,9.44-1.84,5.95-5.96c-16.03-18.89-26.11-40.5-28.58-65.23c-2.42-24.29,0.16-48.9-0.51-73.26
			C225.21,584.89,216.79,584.88,216.94,590.31L216.94,590.31z"/>
	</g>
</g>
<g>
	<g>
		<path class="st0" d="M247.4,730.66c-1.61,9.56-3.44,19.07-5.05,28.63c-0.89,5.31,7.22,7.59,8.12,2.24
			c1.61-9.56,3.44-19.07,5.05-28.63C256.41,727.59,248.3,725.32,247.4,730.66L247.4,730.66z"/>
	</g>
</g>
<g>
	<g>
		<path class="st0" d="M218.47,687.43c4.7-13.61,5.48-28.41,5.43-42.7c-0.06-15.38-1.58-30.76-3.6-46c-0.7-5.3-9.13-5.37-8.42,0
			c1.88,14.22,3.23,28.5,3.55,42.84c0.33,14.59-0.29,29.71-5.09,43.62C208.57,690.34,216.71,692.53,218.47,687.43L218.47,687.43z"/>
	</g>
</g>
<g>
	<g>
		<path class="st0" d="M210.2,603.79c-3.35,36.81-6.61,74.2,1.83,110.59c1.23,5.29,9.35,3.05,8.12-2.24
			c-8.26-35.6-4.81-72.35-1.53-108.35C219.11,598.38,210.69,598.42,210.2,603.79L210.2,603.79z"/>
	</g>
</g>
<g>
	<g>
		<path class="st0" d="M221.99,679.57c0-12.91,0-25.82,0-38.74c0-5.43-8.42-5.43-8.42,0c0,12.91,0,25.82,0,38.74
			C213.57,685,221.99,685,221.99,679.57L221.99,679.57z"/>
	</g>
</g>
<g>
	<g>
		<path class="st0" d="M211.88,666.1c-1.52,16.4,0.11,32.6,5.2,48.28c1.67,5.14,9.8,2.94,8.12-2.24
			c-4.89-15.03-6.36-30.32-4.9-46.04C220.81,660.69,212.38,660.74,211.88,666.1L211.88,666.1z"/>
	</g>
</g>
<g>
	<g>
		<path class="st0" d="M213.57,682.94c1.82,22.52,11.54,42.34,18.68,63.43c1.73,5.12,9.86,2.92,8.12-2.24
			c-6.85-20.26-16.63-39.57-18.38-61.2C221.55,677.57,213.13,677.53,213.57,682.94L213.57,682.94z"/>
	</g>
</g>
<g>
	<g>
		<path class="st0" d="M243.88,753.68c0.1-5.99,1.37-11.73,3.22-17.41c1.69-5.18-6.45-7.38-8.12-2.24
			c-2.07,6.37-3.41,12.94-3.52,19.65C235.37,759.11,243.79,759.1,243.88,753.68L243.88,753.68z"/>
	</g>
</g>
<g>
	<g>
		<path class="st0" d="M244.99,734.71c-8.3-13.34-16.14-27.47-17.95-43.35c-0.61-5.33-9.04-5.39-8.42,0
			c1.99,17.49,9.92,32.85,19.1,47.6C240.58,743.56,247.87,739.33,244.99,734.71L244.99,734.71z"/>
	</g>
</g>
<g>
	<g>
		<path class="st0" d="M242.65,727.12c-12.76-16.04-21.92-33.24-20.66-54.29c0.32-5.43-8.1-5.39-8.42,0
			c-1.39,23.34,9.01,42.48,23.13,60.24C240.07,737.33,245.99,731.33,242.65,727.12L242.65,727.12z"/>
	</g>
</g>
<g>
	<g>
		<path class="st0" d="M213.57,701.47c-1.38,17.79,5.63,32.44,14.05,47.6c2.64,4.75,9.91,0.5,7.27-4.25
			c-7.74-13.92-14.16-26.99-12.9-43.35C222.41,696.05,213.98,696.09,213.57,701.47L213.57,701.47z"/>
	</g>
</g>
<g>
	<g>
		<path class="st0" d="M247.1,735.71c-3.66-15.34-13.18-28.45-16.84-43.79c-1.26-5.28-9.38-3.04-8.12,2.24
			c3.66,15.34,13.18,28.46,16.84,43.79C240.24,743.23,248.36,740.99,247.1,735.71L247.1,735.71z"/>
	</g>
</g>
<g>
	<g>
		<path class="st0" d="M236.99,745.82c-5.38-14.04-13.06-27.25-13.32-42.67c-0.09-5.42-8.51-5.43-8.42,0
			c0.28,16.34,7.92,30.04,13.62,44.91C230.8,753.07,238.94,750.9,236.99,745.82L236.99,745.82z"/>
	</g>
</g>
<g>
	<g>
		<path class="st0" d="M198.41,586.94c-0.02,26.42-0.7,52.86,1.61,79.22c2.25,25.66,7.19,52.24,20.86,74.48
			c2.84,4.62,10.12,0.39,7.27-4.25c-13.45-21.88-17.88-48.09-19.97-73.31c-2.1-25.33-1.36-50.76-1.35-76.14
			C206.83,581.51,198.41,581.51,198.41,586.94L198.41,586.94z"/>
	</g>
</g>
<g>
	<g>
		<path class="st0" d="M209.12,583.22c7.75-24.63,11.18-50.77,22.03-74.37c6.2-13.5,15.1-25.47,23.54-37.61
			c9.04-12.99,18.15-25.93,27.08-39c8.95-13.11,17.67-26.38,25.94-39.93c7.89-12.94,15.07-26.28,23.14-39.12
			c16.22-25.8,33.98-50.6,52.09-75.1c25.18-34.05,51.48-67.32,75.32-102.35c23.28-34.2,45.73-69.14,60.76-107.87
			c2.34-6.02-7.33-8.6-9.64-2.66c-10.86,27.98-25.95,54.01-42.2,79.16c-16.13,24.96-33.34,49.13-51.12,72.94
			c-36.44,48.8-74.13,96.89-105.18,149.41c-11.16,18.87-22.25,37.56-34.53,55.74c-12.38,18.34-25.24,36.36-37.8,54.58
			c-10.92,15.84-19.42,32.12-24.98,50.59c-5.26,17.49-8.6,35.49-14.08,52.93C197.54,586.73,207.2,589.35,209.12,583.22
			L209.12,583.22z"/>
	</g>
</g>
<g>
	<g>
		<path class="st0" d="M212.99,563.81c12.46-26.62,18.74-55.7,32.14-81.91c7.12-13.94,16.6-26.78,25.51-39.61
			c9.04-13.02,18.31-25.88,27.44-38.83c18.72-26.57,36.37-53.87,54.71-80.7c18.56-27.15,37.36-54.14,56.17-81.12
			c23.79-34.12,48-67.97,70.11-103.21c19.53-31.12,38.46-65.08,42.69-102.17c0.61-5.39-7.81-5.33-8.42,0
			c-3.15,27.67-15.69,53.54-29.27,77.47c-13.99,24.64-29.92,48.29-46.07,71.55c-37.59,54.12-75.58,107.96-112.42,162.59
			c-11.92,17.67-23.6,35.48-35.88,52.91c-12.08,17.14-24.37,34.13-36.1,51.51c-11.22,16.62-20.36,33.44-27.35,52.26
			c-6.82,18.37-12.22,37.24-20.55,55.03C203.43,564.44,210.69,568.72,212.99,563.81L212.99,563.81z"/>
	</g>
</g>
<g>
	<g>
		<path class="st0" d="M452.51,178.77c26.65-11.79,46.09-37.34,64.25-59.14c1.02-1.23-0.73-3.01-1.77-1.77
			c-18.03,21.64-37.31,47.05-63.74,58.75C449.77,177.26,451.05,179.42,452.51,178.77L452.51,178.77z"/>
	</g>
</g>
<g>
	<g>
		<path class="st0" d="M358.46,308.6c53.3-38.97,112.74-69.72,161.48-114.76c3.2-2.95-1.58-7.71-4.76-4.76
			c-48.31,44.64-107.29,75.08-160.12,113.7C351.59,305.32,354.95,311.17,358.46,308.6L358.46,308.6z"/>
	</g>
</g>
<g>
	<g>
		<path class="st0" d="M283.48,424.8c30.27-21.38,60.43-43.61,93.98-59.64c3.92-1.87,0.5-7.68-3.4-5.82
			c-33.55,16.04-63.71,38.27-93.98,59.64C276.56,421.47,279.92,427.32,283.48,424.8L283.48,424.8z"/>
	</g>
</g>
<g>
	<g>
		<path class="st0" d="M240.62,489.2c22.8-11.68,38.31-33.17,60.63-45.47c2.12-1.17,0.23-4.41-1.89-3.24
			c-22.33,12.31-37.84,33.8-60.63,45.47C236.57,487.06,238.47,490.3,240.62,489.2L240.62,489.2z"/>
	</g>
</g>
<g>
	<g>
		<path class="st0" d="M283.47,417.31c6.16-19.07,4.68-40.72,2.29-60.3c-2.58-21.1-7.24-42.57-16.3-61.9
			c-8.87-18.93-23.98-34.25-37-50.3c-14.11-17.39-23.23-36.31-23.32-59.08c-0.01-2.12,0.1-4.24,0.21-6.35c0.24-4.34-6.5-4.32-6.74,0
			c-1.24,22.41,4.95,42.66,17.92,60.87c12.43,17.44,27.96,32.34,39.08,50.77c10.77,17.84,15.41,39.59,18.56,59.94
			c3.13,20.21,5.04,42.83-0.65,62.77c-0.18,0.6-0.36,1.2-0.56,1.79C275.64,419.66,282.14,421.42,283.47,417.31L283.47,417.31z"/>
	</g>
</g>
<g>
	<g>
		<path class="st0" d="M279.97,325c-12.75-59.71-9.66-120.19,0-180.1c0.68-4.25-5.81-6.07-6.5-1.79
			c-9.86,61.15-13.02,122.73,0,183.68C274.38,331.04,280.88,329.24,279.97,325L279.97,325z"/>
	</g>
</g>
<g>
	<g>
		<path class="st0" d="M212.6,545.63c-19-80.65-56.3-159.36-118.76-215.38c-3.22-2.89-8,1.86-4.76,4.76
			c61.66,55.3,98.27,132.79,117.03,212.4C207.1,551.65,213.6,549.86,212.6,545.63L212.6,545.63z"/>
	</g>
</g>
<g>
	<g>
		<path class="st0" d="M198.39,500.58c-21.4-11.69-42.42-24.3-61.5-39.54c-19.04-15.2-37.96-34.24-44.69-58.34
			c-0.87-3.1-5.69-1.78-4.82,1.33c6.73,24.09,24.91,43.15,43.71,58.71c19.88,16.45,42.18,29.81,64.78,42.15
			C198.69,506.44,201.22,502.12,198.39,500.58L198.39,500.58z"/>
	</g>
</g>
<g>
	<g>
		<path class="st0" d="M210.58,565.03c-20.05-37.3-66.61-45.01-102.26-60.15c-3.95-1.68-7.39,4.12-3.4,5.82
			c34.24,14.55,80.6,21.93,99.84,57.74C206.82,572.26,212.64,568.86,210.58,565.03L210.58,565.03z"/>
	</g>
</g>
<g>
	<g>
		<path class="st0" d="M192,478.26c-23.47-99.37,7.16-199.34,12.3-298.89c0.22-4.34-6.51-4.32-6.74,0
			c-5.18,100.27-35.7,200.57-12.06,300.68C186.51,484.28,193,482.49,192,478.26L192,478.26z"/>
	</g>
</g>
<g>
	<g>
		<path class="st0" d="M184.33,372.16c-5.22-21.4-19.86-40.04-30.1-59.21c-12.77-23.92-15.54-51.26-15.61-77.99
			c-0.01-4.34-6.75-4.34-6.74,0c0.06,26.45,2.72,53.72,14.63,77.72c10.04,20.22,25.9,39.06,31.32,61.28
			C178.86,378.17,185.36,376.38,184.33,372.16L184.33,372.16z"/>
	</g>
</g>
<g>
	<g>
		<path class="st0" d="M246.29,469.95c4.25-22.56-2.11-45.07-9.68-66.21c-8.34-23.29-19.16-45.92-24-70.32
			c-0.85-4.26-7.34-2.45-6.5,1.79c4.51,22.75,14.21,44.06,22.3,65.68c7.92,21.16,15.69,44.45,11.38,67.27
			C238.99,472.4,245.48,474.21,246.29,469.95L246.29,469.95z"/>
	</g>
</g>
<g>
	<g>
		<path class="st0" d="M184.33,429.53c4.53-32.34,12.72-64.45,27.94-93.51c2.01-3.84-3.8-7.25-5.82-3.4
			c-15.5,29.59-24,62.18-28.62,95.12C177.23,431.98,183.73,433.81,184.33,429.53L184.33,429.53z"/>
	</g>
</g>
<g>
	<g>
		<path class="st0" d="M315.46,366.32c-0.03-19.87-0.96-39.71-1.86-59.55c-0.89-19.53-2.22-39.28-1.31-58.83
			c1.77-37.9,19.29-73.37,34.71-107.29c1.79-3.92-4.02-7.35-5.82-3.4c-15.35,33.73-31.61,67.93-35.24,105.29
			c-1.93,19.86-0.14,40.36,0.74,60.25c0.94,21.16,2.01,42.33,2.04,63.52C308.73,370.66,315.47,370.66,315.46,366.32L315.46,366.32z"
			/>
	</g>
</g>
<g>
	<g>
		<path class="st0" d="M365.86,294.79c15.38-59.12,5.19-122.42,26.95-180.21c1.53-4.07-4.98-5.82-6.5-1.79
			c-21.77,57.83-11.57,121.09-26.95,180.21C358.27,297.21,364.77,299,365.86,294.79L365.86,294.79z"/>
	</g>
</g>
<g>
	<g>
		<path class="st0" d="M365.55,282.11c1.32-38.28-23.73-70.01-38.06-103.64c-0.63-1.48-2.78-0.2-2.16,1.26
			c14.16,33.21,39.03,64.59,37.72,102.38C362.99,283.72,365.49,283.72,365.55,282.11L365.55,282.11z"/>
	</g>
</g>
<g>
	<g>
		<path class="st0" d="M442.21,191.42c5.09-39.27,8.3-80.15,29.41-114.76c2.27-3.72-3.56-7.1-5.82-3.4
			c-21.76,35.67-25.09,77.69-30.33,118.16C434.92,195.72,441.66,195.67,442.21,191.42L442.21,191.42z"/>
	</g>
</g>
<g>
	<g>
		<path class="st0" d="M310.89,275.37c-1.97-17.36-10.27-33.18-16.93-49.08c-9.46-22.59-15.43-45.86-15.37-70.49
			c0.01-2.42-3.74-2.42-3.75,0c-0.06,23.64,5.27,46.17,14.07,68.01c6.75,16.74,16.16,33.37,18.22,51.56
			C307.41,277.75,311.16,277.77,310.89,275.37L310.89,275.37z"/>
	</g>
</g>
<g>
	<g>
		<path class="st0" d="M312.09,287.16c0.72-28.59-4.52-56.92-4.09-85.5c0.21-13.68,2.14-27.27,7.09-40.08
			c5.72-14.81,16.41-27.14,29.02-36.55c3.44-2.57,0.08-8.42-3.4-5.82c-12.53,9.35-22.94,20.81-29.71,34.98
			c-6.1,12.76-8.63,26.8-9.49,40.82c-1.87,30.77,4.62,61.38,3.85,92.16C305.24,291.51,311.98,291.5,312.09,287.16L312.09,287.16z"/>
	</g>
</g>
<g>
	<g>
		<path class="st0" d="M468.24,144.34c3.63-24.27,2.63-49.33,8.42-73.26c0.38-1.57-2.03-2.23-2.41-0.67
			c-5.8,23.95-4.79,48.98-8.42,73.26C465.59,145.25,468,145.93,468.24,144.34L468.24,144.34z"/>
	</g>
</g>
<g>
	<g>
		<path class="st0" d="M440.42,199.11c34.93-13.51,66.83-38.9,83.4-72.99c0.7-1.44-1.45-2.71-2.16-1.26
			c-16.28,33.5-47.57,58.56-81.91,71.84C438.27,197.27,438.91,199.69,440.42,199.11L440.42,199.11z"/>
	</g>
</g>
<g>
	<g>
		<path class="st0" d="M419.47,228.71c32.31-15.28,65.13-29.6,94.31-50.53c2.62-1.88,0.1-6.27-2.55-4.36
			c-29.19,20.92-62,35.25-94.31,50.53C413.98,225.74,416.54,230.1,419.47,228.71L419.47,228.71z"/>
	</g>
</g>
<g>
	<g>
		<path class="st0" d="M400.3,252.87c43.84-20.24,87.67-41.56,122.35-75.98c1.15-1.14-0.62-2.9-1.77-1.77
			c-34.53,34.27-78.2,55.44-121.85,75.59C397.57,251.39,398.85,253.54,400.3,252.87L400.3,252.87z"/>
	</g>
</g>
<g>
	<g>
		<path class="st0" d="M410.1,274.01c36.53-6.81,70.25-23.97,98.23-48.28c1.22-1.06-0.56-2.82-1.77-1.77
			c-27.67,24.03-61.03,40.9-97.13,47.63C407.86,271.89,408.53,274.3,410.1,274.01L410.1,274.01z"/>
	</g>
</g>
<g>
	<g>
		<path class="st0" d="M328.93,354.72c37.41-3.92,68.46-27.93,100.31-45.73c2.11-1.18,0.22-4.42-1.89-3.24
			c-31.15,17.41-61.82,41.39-98.42,45.22C326.55,351.22,326.53,354.97,328.93,354.72L328.93,354.72z"/>
	</g>
</g>
<g>
	<g>
		<path class="st0" d="M343.08,335.07c59.17-10.8,102.97-56.19,153.86-84.46c2.85-1.58,0.3-5.95-2.55-4.36
			c-50.49,28.05-93.97,73.24-152.66,83.95C338.53,330.78,339.89,335.65,343.08,335.07L343.08,335.07z"/>
	</g>
</g>
<g>
	<g>
		<path class="st0" d="M279.35,435.3c24.55-15.82,48.67-33.12,76.14-43.6c2.24-0.85,1.27-4.48-1-3.62
			c-27.81,10.61-52.19,27.97-77.04,43.98C275.44,433.37,277.31,436.62,279.35,435.3L279.35,435.3z"/>
	</g>
</g>
<g>
	<g>
		<path class="st0" d="M316.47,375.49c11.41,1.54,22.85,1.77,34.35,1.77c3.26,0,3.26-5.05,0-5.05c-11.03,0-22.06-0.11-33.01-1.59
			C314.63,370.19,313.26,375.06,316.47,375.49L316.47,375.49z"/>
	</g>
</g>
<g>
	<g>
		<path class="st0" d="M369.59,301.89c13.56,0.21,26.63,4.85,40.19,5.05c1.61,0.02,1.61-2.48,0-2.5
			c-13.56-0.21-26.63-4.85-40.19-5.05C367.97,299.36,367.98,301.86,369.59,301.89L369.59,301.89z"/>
	</g>
</g>
<g>
	<g>
		<path class="st0" d="M208.92,534.73c-0.27-34.88-16.4-69.8-7.51-104.52c3.31-12.92,7.81-25.45,10.4-38.56
			c3.34-16.9,3.27-34.1,0.2-51.04c-0.29-1.58-2.7-0.91-2.41,0.67c3.25,17.94,2.8,35.87-1.02,53.68
			c-2.74,12.74-7.31,24.98-10.34,37.64c-3.5,14.64-1.9,29.68,0.34,44.4c2.92,19.2,7.69,38.23,7.84,57.74
			C206.43,536.35,208.93,536.35,208.92,534.73L208.92,534.73z"/>
	</g>
</g>
<g>
	<g>
		<path class="st0" d="M90.39,387.16c24.96,47.37,77.6,71.21,105.66,116.21c0.85,1.36,3.01,0.11,2.16-1.26
			c-28.06-45.01-80.72-68.88-105.66-116.21C91.79,384.47,89.63,385.73,90.39,387.16L90.39,387.16z"/>
	</g>
</g>
<g>
	<g>
		<path class="st0" d="M86.89,358.23c7.09,19.54,23.41,34.72,38.58,48.2c16.32,14.5,34.32,27.38,49.32,43.3
			c1.11,1.18,2.87-0.6,1.77-1.77c-14.32-15.19-31.39-27.65-47.09-41.34c-15.59-13.59-32.92-29.11-40.16-49.06
			C88.76,356.06,86.34,356.71,86.89,358.23L86.89,358.23z"/>
	</g>
</g>
<g>
	<g>
		<path class="st0" d="M210.44,549.26c-9.12-12.76-18.39-25.45-29.15-36.9c-10.07-10.72-21.69-19.15-33.9-27.23
			c-12.17-8.04-24.51-15.84-35.99-24.86c-10.77-8.47-21.77-18.52-27.14-31.42c-0.61-1.47-3.03-0.82-2.41,0.66
			c4.85,11.63,13.83,20.77,23.28,28.84c11.07,9.45,23.36,17.39,35.51,25.34c12.58,8.22,24.9,16.47,35.63,27.09
			c12.11,11.99,22.13,25.92,32.01,39.74C209.21,551.82,211.38,550.58,210.44,549.26L210.44,549.26z"/>
	</g>
</g>
<g>
	<g>
		<path class="st0" d="M165.09,527.69c-32.4-16.5-57.64-47.76-73.15-80.11c-1.39-2.91-5.7-0.37-4.32,2.52
			c15.84,33.04,41.85,65.05,74.94,81.9C165.43,533.47,167.96,529.15,165.09,527.69L165.09,527.69z"/>
	</g>
</g>
<g>
	<g>
		<path class="st0" d="M112.15,269.99c-2.58,13.52-2.28,26.81,3.31,39.54c5.4,12.29,14.92,22.44,22.81,33.13
			c21.13,28.62,26.06,64.06,32.82,98.1c0.31,1.58,2.72,0.91,2.41-0.66c-6.3-31.68-10.69-65.7-29.11-93.09
			c-7.48-11.13-16.74-21.01-23.58-32.57c-8.02-13.55-9.17-28.53-6.25-43.78C114.86,269.08,112.46,268.41,112.15,269.99
			L112.15,269.99z"/>
	</g>
</g>
<g>
	<g>
		<path class="st0" d="M160.83,329.48c-13.99-22.32-39.08-39.36-41.16-67.58c-0.12-1.6-2.62-1.61-2.5,0
			c2.13,28.91,27.18,46,41.5,68.84C159.52,332.1,161.68,330.85,160.83,329.48L160.83,329.48z"/>
	</g>
</g>
<g>
	<g>
		<path class="st0" d="M149.21,239.67c-14.52,40.29,24.73,69.06,31.84,105.93c0.31,1.58,2.71,0.91,2.41-0.67
			c-6.99-36.26-46.07-65.12-31.84-104.6C152.16,238.82,149.75,238.17,149.21,239.67L149.21,239.67z"/>
	</g>
</g>
<g>
	<g>
		<path class="st0" d="M169.37,209.69c-0.15,15.91-3.28,31.52,0.78,47.21c3.73,14.4,15.23,25.57,15.6,40.99
			c0.04,1.61,2.54,1.61,2.5,0c-0.35-14.54-9.94-25.55-14.75-38.69c-5.84-15.93-1.78-33.08-1.63-49.51
			C171.89,208.08,169.39,208.08,169.37,209.69L169.37,209.69z"/>
	</g>
</g>
<g>
	<g>
		<path class="st0" d="M212.01,340.61c-10.17-51.74-12.54-103.58-11.51-156.18c0.03-1.61-2.47-1.61-2.5,0
			c-1.03,52.83,1.39,104.9,11.6,156.85C209.91,342.86,212.32,342.18,212.01,340.61L212.01,340.61z"/>
	</g>
</g>
<g>
	<g>
		<path class="st0" d="M199.69,187.8c2.06,91.48,65.27,171.57,55.58,264.41c-0.17,1.6,2.33,1.59,2.5,0
			c9.71-92.91-53.51-172.93-55.58-264.41C202.15,186.19,199.65,186.18,199.69,187.8L199.69,187.8z"/>
	</g>
</g>
<g>
	<g>
		<path class="st0" d="M277.93,422.23c4.02-27.94,9.14-56.93-3.77-83.38c-12.34-25.29-33.66-45.07-45.2-70.84
			c-0.66-1.47-2.81-0.2-2.16,1.26c10.88,24.32,30.14,43.57,43.04,66.72c14.95,26.82,9.84,56.64,5.67,85.57
			C275.29,423.14,277.7,423.82,277.93,422.23L277.93,422.23z"/>
	</g>
</g>
<g>
	<g>
		<path class="st0" d="M231.68,164.22c-1.47,27.6,11.84,50.67,32.37,68.25c1.22,1.04,2.99-0.72,1.77-1.77
			c-20.06-17.18-33.07-39.49-31.63-66.48C234.27,162.61,231.77,162.61,231.68,164.22L231.68,164.22z"/>
	</g>
</g>
<g>
	<g>
		<path class="st0" d="M227.4,241.36c-4.26-21.88-4.97-44.8-5.01-67.03c0-1.61-2.5-1.61-2.5,0c0.04,22.47,0.8,45.59,5.1,67.7
			C225.3,243.6,227.71,242.93,227.4,241.36L227.4,241.36z"/>
	</g>
</g>
<g>
	<g>
		<path class="st0" d="M270.34,269.96c12.07,10.43,20.14,24.74,26.52,39.15c6.46,14.6,11.19,30.4,13.25,46.25
			c0.31,2.36,4.06,2.39,3.75,0c-2.1-16.14-6.85-31.83-13.18-46.79c-6.42-15.17-15.1-30.38-27.69-41.27
			C271.18,265.74,268.51,268.38,270.34,269.96L270.34,269.96z"/>
	</g>
</g>
<g>
	<g>
		<path class="st0" d="M299.46,142.32c2.09,17.53,1.68,35.42,1.68,53.05c0,3.26,5.05,3.26,5.05,0c0-17.63,0.4-35.52-1.68-53.05
			C304.13,139.13,299.08,139.09,299.46,142.32L299.46,142.32z"/>
	</g>
</g>
<g>
	<g>
		<path class="st0" d="M333.55,337.69c-0.08-22.6-3.24-45.08-4.35-67.64c-1.11-22.59-0.89-46.9,9.23-67.65
			c0.7-1.44-1.45-2.71-2.16-1.26c-9.89,20.27-10.53,43.63-9.71,65.75c0.87,23.64,4.4,47.14,4.49,70.81
			C331.06,339.3,333.56,339.3,333.55,337.69L333.55,337.69z"/>
	</g>
</g>
<g>
	<g>
		<path class="st0" d="M372.29,217.27c-1.25-10.26-6.79-19.56-12.39-28.02c-6.45-9.76-13.98-18.8-21.66-27.6
			c-1.06-1.22-2.82,0.56-1.77,1.77c6.9,7.91,13.57,16.01,19.59,24.62c6.03,8.61,12.43,18.57,13.73,29.23
			C369.98,218.85,372.48,218.87,372.29,217.27L372.29,217.27z"/>
	</g>
</g>
<g>
	<g>
		<path class="st0" d="M378.53,156.81c-2.34-12.25-2.7-24.8-5.05-37.05c-0.61-3.2-5.48-1.84-4.87,1.34
			c2.35,12.25,2.71,24.8,5.05,37.05C374.27,161.35,379.13,159.99,378.53,156.81L378.53,156.81z"/>
	</g>
</g>
<g>
	<g>
		<path class="st0" d="M356.12,243.25c-6.58,24.83-11.47,50.14-11.59,75.91c-0.01,1.61,2.49,1.61,2.5,0
			c0.12-25.55,4.98-50.63,11.5-75.25C358.94,242.35,356.53,241.69,356.12,243.25L356.12,243.25z"/>
	</g>
</g>
<g>
	<g>
		<path class="st0" d="M438.88,98.2c-6.84,39.37-13.08,78.9-21.89,117.89c-0.36,1.57,2.05,2.24,2.41,0.67
			c8.82-39,15.05-78.52,21.89-117.89C441.57,97.29,439.16,96.62,438.88,98.2L438.88,98.2z"/>
	</g>
</g>
<g>
	<g>
		<path class="st0" d="M405.97,236.64c-0.94-20.13-1.09-40.31,0.25-60.43c1.39-20.85,4.16-42.75,13.05-61.89
			c0.67-1.45-1.48-2.72-2.16-1.26c-8.47,18.23-11.36,38.67-13.04,58.53c-1.83,21.61-1.62,43.39-0.6,65.04
			C403.54,238.24,406.04,238.25,405.97,236.64L405.97,236.64z"/>
	</g>
</g>
<g>
	<g>
		<path class="st0" d="M404.78,116.11c-24.72,44.83-22.17,99.6-22.15,149.15c0,2.42,3.75,2.42,3.75,0
			c-0.02-48.85-2.74-103.06,21.64-147.26C409.19,115.89,405.95,114,404.78,116.11L404.78,116.11z"/>
	</g>
</g>
<g>
	<g>
		<path class="st0" d="M488.45,110.66c3.38-15.88,3.41-32.25,3.41-48.41c0-1.61-2.5-1.61-2.5,0c0,15.93,0.01,32.09-3.32,47.74
			C485.7,111.56,488.11,112.23,488.45,110.66L488.45,110.66z"/>
	</g>
</g>
<g>
	<g>
		<path class="st0" d="M224.06,587.88c-1.09-4.08-2.91-7.92-4-12c-1.4-5.24-9.52-3.01-8.12,2.24c1.09,4.08,2.91,7.92,4,12
			C217.34,595.36,225.46,593.13,224.06,587.88L224.06,587.88z"/>
	</g>
</g>
<g>
	<g>
		<path class="st0" d="M208.94,581.12c1.74,4.51,2.78,9.04,2.85,13.88c0.08,5.43,8.5,5.43,8.42,0c-0.08-5.55-1.15-10.94-3.15-16.12
			C215.13,573.87,206.98,576.04,208.94,581.12L208.94,581.12z"/>
	</g>
</g>
<g>
	<g>
		<path class="st0" d="M208.66,573.79c-0.41,3-0.22,5.41,1.02,8.18c0.97,2.16,2.04,3.56,2.1,6.03c0.14,5.42,8.56,5.43,8.42,0
			c-0.07-2.79-0.64-5.26-1.87-7.76c-0.81-1.64-1.78-2.5-1.55-4.21c0.31-2.27-0.51-4.51-2.94-5.18
			C211.86,570.3,208.98,571.51,208.66,573.79L208.66,573.79z"/>
	</g>
</g>
<g>
	<g>
		<path class="st0" d="M206.21,589c0-4,0-8,0-12c0-5.43-8.42-5.43-8.42,0c0,4,0,8,0,12C197.79,594.43,206.21,594.43,206.21,589
			L206.21,589z"/>
	</g>
</g>
<g>
	<g>
		<path class="st0" d="M207.21,576c4.19-54.43,31.08-106.06,69.77-144.02c3.88-3.81-2.08-9.76-5.95-5.96
			c-40.35,39.58-67.87,93.3-72.23,149.98C198.37,581.42,206.8,581.38,207.21,576L207.21,576z"/>
	</g>
</g>
<g>
	<g>
		<path class="st0" d="M255.64,455.76c20.54-32.98,41.84-66.09,69.34-93.78c3.83-3.86-2.12-9.81-5.95-5.95
			c-27.99,28.19-49.75,61.92-70.66,95.48C245.48,456.13,252.77,460.36,255.64,455.76L255.64,455.76z"/>
	</g>
</g>
<g>
	<g>
		<path class="st0" d="M312.64,376.12c18.36-25.52,36.22-51.4,53-78c2.91-4.61-4.38-8.83-7.27-4.25c-16.78,26.6-34.64,52.48-53,78
			C302.19,376.29,309.5,380.49,312.64,376.12L312.64,376.12z"/>
	</g>
</g>
</svg>
