<?xml version="1.0" encoding="utf-8"?>
<!-- Generator: Adobe Illustrator 23.0.6, SVG Export Plug-In . SVG Version: 6.00 Build 0)  -->
<svg version="1.1" id="Layer_1" xmlns="http://www.w3.org/2000/svg" xmlns:xlink="http://www.w3.org/1999/xlink" x="0px" y="0px"
	 viewBox="0 0 792 612" style="enable-background:new 0 0 792 612;" xml:space="preserve">
<style type="text/css">
	.st0{fill:#C02329;}
</style>
<g>
	<g>
		<path class="st0" d="M571.72,37.85c7.96-5.59,16.41-15.75,16.41-26.09c0-5.63-6.77-10.17-11.79-6.76
			c-23.74,16.11-50.29,27.54-73.76,44.08c-25.36,17.87-46.59,41.58-68.52,63.35c-19.74,19.6-39.4,39.18-64.17,52.33
			c-22.45,11.92-47.29,18.86-72.09,23.88c-28.39,5.74-57.2,8.43-86,11.01c-36.4,3.26-72.72,7.86-109.33,7.94
			c-6.83,0.02-10.38,8.53-5.54,13.37c6.79,6.79,13.58,13.58,20.37,20.37c0.53-4.1,1.06-8.2,1.59-12.3
			c-19.58,11.46-38.76,24.27-54.35,40.91c-16.47,17.57-26.83,39.02-29.42,62.99c-0.46,4.25,3.91,7.83,7.83,7.83
			c7.73,0,10.94-7.8,15.58-12.97c5.34-5.96,11.57-10.45,19.41-12.37c-2.54-4.36-5.08-8.73-7.62-13.09
			c-19.43,17.83-28.06,45.06-30.89,70.55c-2.89,26.03,1.65,54.42,18.35,75.25c3,3.74,10.32,2.72,12.3-1.59
			c4.9-10.65,4.13-22.07,7.06-33.2c-5.04,0-10.07,0-15.11,0c4.96,25.35,18.66,46.53,34.91,66.12c3.63,4.38,12.07,2.1,13.09-3.46
			c1.84-9.99,1.84-20.16,1.85-30.28c-5.22,0-10.44,0-15.67,0c2.32,35.73,35.07,61.72,63.41,78.83c4.19,2.53,10.4,0.25,11.51-4.68
			c1.96-8.73,1.61-17.34,0-26.1c-4.77,2.01-9.54,4.02-14.32,6.04c16.39,23.57,52.49,27.29,78.83,27.38
			c4.13,0.01,8.02-3.58,7.83-7.83c-0.26-5.93-2.88-11.39-3.13-17.23c-3.31,2.52-6.61,5.04-9.92,7.55
			c28.32,8.89,56.93,14.29,86.68,14.38c4.77,0.01,9.34-5.08,7.55-9.92c-2.13-5.79-5.22-10.86-8.62-15.97
			c-2.95,3.83-5.9,7.67-8.85,11.51c21.67,6.7,43.38,14.15,66.31,14.38c0-5.22,0-10.44,0-15.67c-0.52,0-1.04,0-1.57,0
			c2.61,2.61,5.22,5.22,7.83,7.83c-0.24-6.59-2.26-12.48-5.77-18.05c0.36,1.32,0.71,2.64,1.07,3.95c0-0.34,0-0.69,0-1.03
			c-3.31,2.52-6.61,5.04-9.92,7.55c13.82,2.21,27.65,4.47,41.14,8.27c6.54,1.84,12.93,4.15,19.07,7.05
			c5.33,2.52,11.06,7.94,17.07,7.94c4.21,0,7.91-3.56,7.83-7.83c-0.15-8.3-2.67-14.47-6.29-21.71c-3.57,3.57-7.14,7.14-10.72,10.72
			c13.86,8.05,26,18.43,38.65,28.2c4.89,3.77,11.79-1.41,11.79-6.76c0-2.74,1.21-6.21,1.04-9.4c-0.1-1.84-0.48-3.71-0.83-5.51
			c-0.25-1.28-1.26-2.91-1.26-3.89c-3.93,2.25-7.86,4.51-11.79,6.76c19.93,14.76,38.56,31.19,58.49,45.96
			c5.27,3.91,11.27-1.55,11.79-6.76c1.02-10.23-0.62-22.91-5.25-32.15c-3.57,3.57-7.14,7.14-10.72,10.72
			c20.08,12.59,33.9,33.94,48.55,52.04c3.5,4.33,12.26,2.16,13.09-3.46c3.33-22.49,10.56-44.94,7.59-67.89
			c-3.93,2.25-7.86,4.51-11.79,6.76c2.16,1.16,4.13,2.42,5.98,4.04c0.7,0.64,1.37,1.31,2.01,2.01c0.9,0.94,1.04,2.58,0.67-0.28
			c0.55,4.23,3.14,7.83,7.83,7.83c3.97,0,8.23-3.57,7.83-7.83c-2.82-30.04,2.65-59.57,9.12-88.78c-4.77,0.62-9.54,1.25-14.32,1.87
			c3.4,7.28,4.67,14.15,12.21,18.48c5.58,3.21,11.15-1.02,11.79-6.76c3.1-27.9,6.59-55.74,15.39-82.52
			c-4.36,1.15-8.73,2.3-13.09,3.46c4.9,5.08,8.17,10.95,11.31,17.21c3,5.98,12.91,4.6,14.32-1.87c6.32-29.14,16.23-57.07,29.5-83.77
			c-4.87-1.32-9.73-2.64-14.6-3.95c0.3,6.58,2.44,12.68,5.25,18.57c2.58,5.42,10.76,4.77,13.53,0c7.7-13.31,14.33-27.17,20.73-41.14
			c3.29-7.18,6.53-14.38,9.86-21.54c2.3-4.95,4.21-11.44,7.88-15.1c-4.46-1.85-8.92-3.69-13.37-5.54
			c0.22,6.69,2.31,12.53,4.46,18.79c1.98,5.76,11.27,8.56,14.32,1.87c14.89-32.69,17.69-69.39,9.15-104.21
			c-4.36,2.54-8.73,5.08-13.09,7.62c4.18,4.18,8.36,8.36,12.53,12.53c5.32,5.32,12.52,0.85,13.37-5.54
			c2.4-18.02-1.92-36.97-8.64-53.64c-7.41-18.38-18.58-35.54-34.93-47.12c-2.01,4.77-4.02,9.54-6.04,14.32
			c6.17,1.86,12.63,2.31,18.8,4.17c5.92,1.79,10.97-4,9.64-9.64c-5.18-21.89-24.31-35.06-44.27-42.47
			c-19.09-7.09-41.24-9.73-61.46-7.14c1.85,4.46,3.69,8.91,5.54,13.37c6.76-6.54,15.14-11.26,23.48-15.48
			c3.11-1.57,4.49-5.62,3.6-8.85c-1.02-3.7-4.03-5.28-7.55-5.75c-27.2-3.62-52.61,6.12-79.38,8.35c-9.99,0.83-10.07,16.51,0,15.67
			c26.73-2.23,52.29-11.96,79.38-8.35c-1.32-4.87-2.64-9.73-3.95-14.6c-9.53,4.83-18.93,10.47-26.65,17.93
			c-4.5,4.35-1.49,14.27,5.54,13.37c18.03-2.3,36.68-0.15,53.94,5.42c16.08,5.19,32.55,15.22,36.68,32.7
			c3.21-3.21,6.42-6.42,9.64-9.64c-6.17-1.86-12.63-2.31-18.8-4.17c-8.99-2.71-12.95,9.42-6.04,14.32
			c13.18,9.33,22.31,24.3,28.25,39.05c6.09,15.11,9.73,31.89,7.56,48.18c4.46-1.85,8.92-3.69,13.37-5.54
			c-4.18-4.18-8.35-8.36-12.53-12.53c-5.66-5.66-14.94,0.09-13.09,7.62c7.48,30.46,5.51,63.44-7.57,92.13
			c4.77,0.62,9.55,1.25,14.32,1.87c-1.65-4.8-3.73-9.49-3.9-14.62c-0.22-6.74-8.41-10.49-13.37-5.54c-4.21,4.2-6.28,9.66-8.8,15
			c-3.37,7.13-6.6,14.31-9.87,21.49c-6.88,15.09-13.94,30.11-22.25,44.47c4.51,0,9.02,0,13.53,0c-1.57-3.29-2.94-7-3.11-10.67
			c-0.34-7.28-10.92-11.34-14.6-3.95c-13.86,27.89-24.48,57.06-31.08,87.51c4.77-0.62,9.54-1.25,14.32-1.87
			c-3.74-7.46-7.93-14.35-13.76-20.39c-4.27-4.42-11.3-1.99-13.09,3.46c-9.23,28.09-12.69,57.42-15.95,86.68
			c3.93-2.25,7.86-4.51,11.79-6.76c-3.93-2.26-4.78-8.99-6.59-12.86c-2.87-6.14-12.91-4.46-14.32,1.87
			c-6.75,30.47-12.62,61.62-9.68,92.95c5.22,0,10.44,0,15.67,0c-1.16-8.9-8.87-15.26-16.41-19.29c-4.65-2.49-12.6,0.49-11.79,6.76
			c2.8,21.63-3.89,42.53-7.03,63.73c4.36-1.15,8.73-2.3,13.09-3.46c-15.64-19.32-30.28-41.05-51.72-54.49
			c-7.05-4.42-14.05,4.05-10.72,10.72c3.27,6.53,3.85,16.82,3.11,24.25c3.93-2.25,7.86-4.51,11.79-6.76
			c-19.93-14.76-38.55-31.2-58.49-45.96c-4.93-3.65-11.79,1.31-11.79,6.76c0,3.33,1.68,6.14,2.09,9.4c0.42,3.33-1.04,6.13-1.04,9.4
			c3.93-2.25,7.86-4.51,11.79-6.76c-12.65-9.77-24.77-20.15-38.65-28.2c-7.11-4.12-14.13,3.89-10.72,10.72
			c2.35,4.71,4.05,8.38,4.15,13.8c2.61-2.61,5.22-5.22,7.83-7.83c-0.35,0-0.7,0-1.04,0c1.32,0.36,2.64,0.71,3.95,1.07
			c-22.77-14.88-49.65-19.54-76.02-23.77c-4.95-0.79-9.92,2.04-9.92,7.55c0,5.5,4.49,9.48,4.7,15.13c0.16,4.27,3.44,7.83,7.83,7.83
			c0.52,0,1.04,0,1.57,0c10.11,0,10.1-15.56,0-15.67c-21.47-0.22-41.87-7.55-62.15-13.82c-6.38-1.97-12.66,5.77-8.85,11.51
			c2.58,3.89,5.42,7.82,7.04,12.23c2.52-3.3,5.04-6.61,7.55-9.92c-28.43-0.09-55.45-5.32-82.52-13.82
			c-4.73-1.49-10.13,2.56-9.92,7.55c0.26,5.93,2.88,11.39,3.13,17.23c2.61-2.61,5.22-5.22,7.83-7.83
			c-12.19-0.04-24.32-1.25-36.19-4.1c-10.22-2.45-22.8-6.44-29.11-15.52c-5.17-7.43-15.94-2.79-14.32,6.04
			c1.08,5.88,1.31,11.92,0,17.77c3.84-1.56,7.67-3.12,11.51-4.68c-12.82-7.74-24.86-16.61-35.39-27.29
			c-10.07-10.22-19.3-23.25-20.26-38.01c-0.65-9.99-15.66-10.19-15.67,0c0,8.66,0.29,17.57-1.29,26.12
			c4.36-1.15,8.73-2.3,13.09-3.46c-14.58-17.58-26.45-36.52-30.89-59.21c-1.52-7.79-13.21-7.2-15.11,0
			c-2.5,9.51-1.33,20.45-5.48,29.46c4.1-0.53,8.2-1.06,12.3-1.59c-14.06-17.54-15.94-42.7-13.76-64.18
			c2.16-21.36,10.14-44.66,26.3-59.48c6-5.5-0.31-14.89-7.62-13.09C57.8,304.22,47,316.12,37.75,328.96
			c2.25-1.29,4.51-2.59,6.76-3.88c-0.52,0-1.04,0-1.57,0c2.61,2.61,5.22,5.22,7.83,7.83c4.66-43.06,41.42-70.12,76.02-90.37
			c4.36-2.55,5.16-8.73,1.59-12.3c-6.79-6.79-13.58-13.58-20.37-20.37c-1.85,4.46-3.69,8.92-5.54,13.37
			c32.66-0.07,65.14-3.7,97.61-6.85c27.44-2.66,54.84-4.87,82.1-9.14c25.37-3.98,50.57-9.77,74.46-19.3
			c11.88-4.74,23.36-10.4,34.18-17.23c11.35-7.17,21.37-15.97,31.23-25.03c26.33-24.19,50.13-51.09,77.26-74.42
			c25.41-21.85,57.37-34.06,84.93-52.75c-3.93-2.25-7.86-4.51-11.79-6.76c0,3.73-5.11,10.07-8.65,12.56
			C555.61,30.08,563.43,43.67,571.72,37.85L571.72,37.85z"/>
	</g>
</g>
<g>
	<g>
		<g>
			<path class="st0" d="M368.04,176.15c32.45,50.97,73.97,96,98.71,151.66c12.16,27.35,21.05,56.06,29.91,84.6
				c8.66,27.9,18.13,55.26,30.24,81.87c12.9,28.35,28.27,55.5,44.8,81.88c2.67,4.27,9.45,0.34,6.76-3.95
				c-15.61-24.92-30.1-50.52-42.61-77.15c-12.63-26.9-22.32-54.71-31.12-83.05c-8.72-28.1-17.6-56.15-29.1-83.26
				c-11.79-27.79-27.61-53.13-45.02-77.71c-18.62-26.28-38.5-51.65-55.81-78.84C372.1,167.95,365.31,171.88,368.04,176.15
				L368.04,176.15z"/>
		</g>
	</g>
	<g>
		<g>
			<path class="st0" d="M378.48,173.02c16.38,29.78,34.03,58.84,50.76,88.42c16.67,29.48,33.07,59.53,44.93,91.32
				c1.75,4.69,9.32,2.66,7.55-2.08c-24-64.32-63.56-121.76-96.48-181.62C382.81,164.64,376.04,168.59,378.48,173.02L378.48,173.02z"
				/>
		</g>
	</g>
	<g>
		<g>
			<path class="st0" d="M396.12,199.6c-7.31-6.52-12.5-15.18-15.7-24.38c-1.65-4.74-9.22-2.7-7.55,2.08
				c3.64,10.45,9.4,20.42,17.72,27.84C394.34,208.49,399.9,202.97,396.12,199.6L396.12,199.6z"/>
		</g>
	</g>
	<g>
		<g>
			<path class="st0" d="M379.52,184.5c2.24,4.31,5.56,7.83,8.97,11.24c3.57,3.58,9.11-1.96,5.54-5.54c-2.96-2.97-5.79-5.9-7.74-9.65
				C383.96,176.07,377.2,180.03,379.52,184.5L379.52,184.5z"/>
		</g>
	</g>
	<g>
		<g>
			<path class="st0" d="M380.14,190.52c4.69,3.74,6.79,9.82,11.49,13.58c1.67,1.33,3.9,1.63,5.54,0c1.38-1.38,1.67-4.2,0-5.54
				c-4.69-3.74-6.78-9.82-11.49-13.58c-1.67-1.33-3.9-1.63-5.54,0C378.75,186.36,378.47,189.19,380.14,190.52L380.14,190.52z"/>
		</g>
	</g>
</g>
<g>
	<g>
		<path class="st0" d="M389.28,194.26c19.82,11.61,43.9,12.74,66.29,11.96c23.72-0.82,47.18-4.75,70.86-6.01
			c23.63-1.26,47.75,2.38,69.49,11.89c22.2,9.72,40.99,25.73,55.03,45.38c10.64,14.89,18.13,32.93,18.37,51.42
			c0.07,5.05,7.9,5.05,7.83,0c-0.66-49.91-44.05-92.19-88.54-108.05c-21.86-7.79-45.42-9.74-68.45-8.09
			c-24.05,1.73-47.9,5.49-72.05,5.8c-18.65,0.24-38.48-1.45-54.9-11.07C388.87,184.94,384.93,191.71,389.28,194.26L389.28,194.26z"
			/>
	</g>
</g>
<g>
	<g>
		<path class="st0" d="M406.25,220.81c33.01,40.75,84.86,54.25,133.65,66.09c20.25,4.92,40.59,12.31,57.02,25.48
			c15.93,12.77,25.96,30.48,31.24,50.01c1.1,4.05,1.94,8.17,2.67,12.31c0.88,4.97,8.43,2.86,7.55-2.08
			c-3.64-20.49-11.4-39.89-25.27-55.62c-13.07-14.82-30.86-24.42-49.2-31.1c-22.93-8.36-47.31-12.5-70.6-19.79
			c-24.45-7.65-48.09-18.36-67.29-35.63c-5.17-4.65-9.87-9.79-14.24-15.19C408.6,211.35,403.1,216.92,406.25,220.81L406.25,220.81z"
			/>
	</g>
</g>
<g>
	<g>
		<path class="st0" d="M481.08,269.86c36.37,12.46,73.94,21.16,111.55,28.89c24.64,5.06,55.2,14.06,57.9,43.58
			c0.46,4.99,8.3,5.03,7.84,0c-1.25-13.66-7.31-25.47-18.33-33.78c-11.2-8.45-24.99-12.69-38.47-15.85
			c-16.72-3.93-33.59-6.99-50.29-11.08c-22.93-5.61-45.77-11.66-68.11-19.31C478.37,260.66,476.33,268.23,481.08,269.86
			L481.08,269.86z"/>
	</g>
</g>
<g>
	<g>
		<path class="st0" d="M468.3,329.68c15.29,25.78,45.06,37.05,69.56,51.85c13.55,8.18,26.74,17.91,38.53,28.46
			c12.19,10.92,21.7,24.06,26.25,39.9c1.39,4.85,8.95,2.78,7.55-2.08c-9.02-31.46-35.67-50.96-61.45-68.62
			c-24.63-16.87-57.67-26.47-73.67-53.46C472.49,321.39,465.72,325.33,468.3,329.68L468.3,329.68z"/>
	</g>
</g>
<g>
	<g>
		<path class="st0" d="M382.9,174.82c52.46-21.49,102.05-49.91,156.3-66.97c47.24-14.86,104.02-21.37,149.16,3.64
			c21.72,12.03,35.91,32.14,40.65,56.42c0.97,4.96,8.52,2.85,7.55-2.08c-4.17-21.37-15.35-40.34-32.77-53.55
			c-17.24-13.06-38.26-19.92-59.46-23.12c-54.98-8.31-109.39,9.39-159.3,30.88c-35.04,15.09-68.91,32.77-104.22,47.23
			C376.21,169.15,378.23,176.73,382.9,174.82L382.9,174.82z"/>
	</g>
</g>
<g>
	<g>
		<path class="st0" d="M370.74,178.71c-17.79,17.31-44.11,21.81-65.68,32.63c-27.46,13.78-54.54,28.81-80.46,45.3
			c-45.71,29.06-88.45,62.68-117.19,109.38c-16.89,27.43-25.84,60.04-25.03,92.24c0.13,5.04,7.96,5.05,7.83,0
			c-1.49-58.72,31.43-109.29,73.7-147.3c20.33-18.28,42.99-33.79,66.03-48.44c26-16.53,53.26-31.46,80.8-45.28
			c21.85-10.96,47.47-15.4,65.55-32.99C379.9,180.72,374.36,175.19,370.74,178.71L370.74,178.71z"/>
	</g>
</g>
<g>
	<g>
		<path class="st0" d="M393.61,209.68c-3.67,44.38-46.83,73.08-77.59,99.59c-16.26,14.01-29.92,30.12-44.74,45.56
			c-16.39,17.08-33.06,33.99-46.7,53.42c-12.47,17.78-21.55,38.14-22.4,60.08c-0.36,9.22,0.87,18.93,2.54,27.99
			c1.58,8.61,4.94,18.54,13.28,22.75c4.5,2.27,8.46-4.49,3.95-6.76c-8.47-4.27-9.77-16.88-10.76-25.24
			c-1.23-10.45-1.75-20.78,0.21-31.18c4.35-23.14,18.46-43.32,33.35-60.98c15.02-17.81,32.05-33.77,47.54-51.15
			c14.28-16.02,30.14-29.76,46.52-43.58c28.21-23.8,59.37-51.27,62.62-90.51C401.86,204.64,394.02,204.69,393.61,209.68
			L393.61,209.68z"/>
	</g>
</g>
<g>
	<g>
		<path class="st0" d="M431.52,265.99c10,18.34,4.25,40.22-3.58,58.24c-8.43,19.39-20.48,37.08-32.81,54.16
			c-13.41,18.58-26.05,36.74-33.3,58.73c-7.77,23.54-8.92,48.76-8.95,73.35c-0.01,5.05,7.83,5.05,7.83,0
			c0.03-25.01,1.43-50.08,9.56-73.93c7.37-21.63,21.03-39.38,34.16-57.72c12.43-17.38,24.03-35.45,32.23-55.24
			c7.65-18.46,11.63-39.55,3.22-58.42c-0.48-1.07-1.04-2.09-1.6-3.12C435.86,257.6,429.1,261.55,431.52,265.99L431.52,265.99z"/>
	</g>
</g>
<g>
	<g>
		<path class="st0" d="M474.17,352.77c13.07,58.28-19.72,114.93-11.49,173.38c0.7,4.98,8.25,2.86,7.55-2.08
			c-4.12-29.28,2.87-58.62,8.36-87.23c5.46-28.45,9.56-57.48,3.13-86.14C480.62,345.75,473.07,347.85,474.17,352.77L474.17,352.77z"
			/>
	</g>
</g>
<g>
	<g>
		<path class="st0" d="M264.39,366.63c-53.85,17.82-118.13,69.17-105.75,132.86c0.46,2.37,4.08,1.37,3.62-1
			c-11.94-61.46,51.41-111.13,103.13-128.24C267.67,369.49,266.69,365.87,264.39,366.63L264.39,366.63z"/>
	</g>
</g>
<g>
	<g>
		<path class="st0" d="M321.57,206.41c-15.79,10.29-30.77,21.84-43.23,36.05c-11.83,13.49-20.57,29.18-27.27,45.76
			c-4.21,10.43-7.43,21.21-11.7,31.63c-4.71,11.49-10.3,22.6-16.22,33.51c-11.26,20.75-23.95,40.69-35.4,61.33
			c-1.17,2.12,2.07,4.01,3.24,1.89c11.18-20.16,23.46-39.67,34.59-59.85c11.01-19.97,19.16-40.56,26.96-61.92
			c6.45-17.66,15.44-34.32,27.61-48.7c12.26-14.5,27.49-26.13,43.32-36.45C325.48,208.33,323.61,205.08,321.57,206.41L321.57,206.41
			z"/>
	</g>
</g>
<g>
	<g>
		<path class="st0" d="M218.43,210.45c26.92,9.57,56.17,14.62,84.55,9.4c2.38-0.44,1.37-4.05-1-3.62
			c-27.7,5.09-56.31-0.07-82.56-9.4C217.15,206.02,216.17,209.65,218.43,210.45L218.43,210.45z"/>
	</g>
</g>
<g>
	<g>
		<path class="st0" d="M121.3,234.47c48.96,13.09,101.44,6.64,150.89,0.07c2.36-0.31,2.39-4.07,0-3.75
			c-49.09,6.53-101.3,13.06-149.9,0.07C119.96,230.23,118.97,233.84,121.3,234.47L121.3,234.47z"/>
	</g>
</g>
<g>
	<g>
		<path class="st0" d="M240.37,246.52c-31.05,12.84-65.71,12.24-97.74,21.81c-28.96,8.65-54.48,24.88-75.42,46.56
			c-1.68,1.74,0.97,4.39,2.65,2.65c21.02-21.75,46.31-37.4,75.31-46.06c31.54-9.42,65.58-8.68,96.19-21.34
			C243.56,249.22,242.6,245.59,240.37,246.52L240.37,246.52z"/>
	</g>
</g>
<g>
	<g>
		<path class="st0" d="M179.79,288.3c-31.01,11.39-61.24,26.69-84.82,50.27c-23.29,23.29-36.35,53.71-39.8,86.26
			c-0.25,2.4,3.5,2.38,3.75,0c3.4-32.18,16.64-61.55,39.58-84.5c22.73-22.73,52.42-37.46,82.28-48.42
			C183.04,291.09,182.07,287.46,179.79,288.3L179.79,288.3z"/>
	</g>
</g>
<g>
	<g>
		<path class="st0" d="M123.99,343.84c-28.17,12.22-53.3,38.69-60.39,69.01c-0.55,2.35,3.06,3.35,3.62,1
			c6.9-29.47,31.32-54.9,58.67-66.76C128.09,346.12,126.18,342.89,123.99,343.84L123.99,343.84z"/>
	</g>
</g>
<g>
	<g>
		<path class="st0" d="M260.81,238.35c-16.1,11.83-30.58,25.52-40.59,42.97c-9.91,17.27-14.69,37-18.76,56.32
			c-0.5,2.36,3.12,3.36,3.62,1c3.94-18.7,8.59-37.49,17.8-54.38c9.48-17.38,24.02-31.05,39.83-42.67
			C264.63,240.18,262.76,236.92,260.81,238.35L260.81,238.35z"/>
	</g>
</g>
<g>
	<g>
		<path class="st0" d="M171.73,300.55c-0.12,34.05-6.15,67.69-11.4,101.23c-2.54,16.26-4.24,32.37-4.49,48.85
			c-0.27,17.87,0.68,35.74,1.27,53.59c0.05,1.61,2.55,1.61,2.5,0c-0.57-17.23-1.4-34.45-1.29-51.7c0.11-17.49,2-34.6,4.7-51.86
			c5.19-33.16,11.09-66.44,11.21-100.11C174.23,298.93,171.73,298.93,171.73,300.55L171.73,300.55z"/>
	</g>
</g>
<g>
	<g>
		<path class="st0" d="M173.86,304.21c2.56,17.63,2.61,35.55,7.29,52.83c2.62,9.64,5.71,18.86,6.97,28.83
			c1.23,9.78,0.78,19.7-0.68,29.42c-0.24,1.58,2.17,2.25,2.41,0.66c2.79-18.54,0.98-36.43-4.65-54.26
			c-5.99-18.99-6.09-38.61-8.93-58.15C176.04,301.95,173.63,302.63,173.86,304.21L173.86,304.21z"/>
	</g>
</g>
<g>
	<g>
		<path class="st0" d="M124.77,352.44c-10.34,35.15-20.83,70.36-25.11,106.86c-0.19,1.6,2.31,1.58,2.5,0
			c4.25-36.27,14.74-71.28,25.02-106.2C127.64,351.55,125.23,350.9,124.77,352.44L124.77,352.44z"/>
	</g>
</g>
<g>
	<g>
		<path class="st0" d="M139.72,328.91c-19.06,21.63-20.75,54.19-18.2,81.52c1.66,17.83,5.67,35.46,11.61,52.34
			c5.55,15.75,19.28,27.15,22.98,43.87c0.35,1.57,2.76,0.91,2.41-0.66c-3.22-14.53-13.39-25.99-20.45-38.73
			c-4.48-8.1-6.73-17.62-8.93-26.55c-2.12-8.63-3.61-17.43-4.69-26.25c-3.38-27.58-2.31-61.82,17.03-83.77
			C142.55,329.47,140.78,327.7,139.72,328.91L139.72,328.91z"/>
	</g>
</g>
<g>
	<g>
		<path class="st0" d="M284.45,344.91c1.69-11.81,3.23-23.71,6.55-35.2c3.52-12.19,9.83-23.1,17.28-33.29
			c7.96-10.88,15.3-21.82,21.02-34.07c5.72-12.26,9.62-25.27,12.59-38.44c0.53-2.36-3.08-3.36-3.62-1
			c-3.02,13.39-7.05,26.48-12.86,38.94c-5.98,12.82-14.16,23.97-22.35,35.42c-6.63,9.26-11.88,19.35-15.31,30.22
			c-3.72,11.79-5.18,24.23-6.92,36.42C280.5,346.28,284.11,347.3,284.45,344.91L284.45,344.91z"/>
	</g>
</g>
<g>
	<g>
		<path class="st0" d="M282.8,347.88c6.07-30.63-14.52-58.19-12.64-88.48c0.1-1.61-2.4-1.6-2.5,0
			c-1.87,30.03,18.72,57.54,12.73,87.81C280.08,348.79,282.49,349.46,282.8,347.88L282.8,347.88z"/>
	</g>
</g>
<g>
	<g>
		<path class="st0" d="M364.27,184.78c-28.77,32.54-20.35,78.46-36.75,116.18c-0.64,1.46,1.52,2.74,2.16,1.26
			c16.25-37.35,7.94-83.53,36.36-115.68C367.1,185.34,365.34,183.57,364.27,184.78L364.27,184.78z"/>
	</g>
</g>
<g>
	<g>
		<path class="st0" d="M383.35,200.12c-3.41,23.59-13.34,45.56-17.76,68.93c-0.15,0.79,1.06,1.12,1.21,0.33
			c4.42-23.37,14.35-45.34,17.76-68.93C384.67,199.66,383.46,199.32,383.35,200.12L383.35,200.12z"/>
	</g>
</g>
<g>
	<g>
		<path class="st0" d="M214.47,428.74c-10.55,12.03-19.96,25.39-26.31,40.13c-5.81,13.49-8.7,29.6-0.09,42.57
			c1.33,2,4.58,0.13,3.24-1.89c-8.73-13.14-4.37-29.29,1.78-42.55c6.02-12.98,14.63-24.87,24.04-35.6
			C218.71,429.58,216.07,426.91,214.47,428.74L214.47,428.74z"/>
	</g>
</g>
<g>
	<g>
		<path class="st0" d="M354.99,283.35c-7.35,38.59-38.9,65.08-56.02,99c-18.81,37.27-16.84,85.75,6.08,120.72
			c1.32,2.01,4.57,0.14,3.24-1.89c-23.51-35.88-23.82-84.52-3.48-121.89c17.46-32.08,46.71-57.76,53.8-94.94
			C359.05,281.98,355.44,280.97,354.99,283.35L354.99,283.35z"/>
	</g>
</g>
<g>
	<g>
		<path class="st0" d="M239.66,393.16c-14.13,35.75-16.94,75.37-6.27,112.43c0.45,1.55,2.86,0.89,2.41-0.66
			c-10.57-36.67-7.71-75.73,6.27-111.1C242.66,392.33,240.24,391.68,239.66,393.16L239.66,393.16z"/>
	</g>
</g>
<g>
	<g>
		<path class="st0" d="M239.06,400.27c2.88,19.29,5.04,38.79,10.38,57.6c5.36,18.91,14.87,35.96,27.7,50.8
			c1.58,1.83,4.23-0.83,2.65-2.65c-12.81-14.81-21.79-31.69-27.13-50.51c-5.2-18.33-7.19-37.45-9.99-56.24
			C242.32,396.89,238.7,397.91,239.06,400.27L239.06,400.27z"/>
	</g>
</g>
<g>
	<g>
		<path class="st0" d="M301.41,330.21c-10.45,13.81-20.18,28.15-28.25,43.49c-7.21,13.71-13.96,29.35-15.79,44.87
			c-2.07,17.59-1.57,36.19,1.61,53.64c2.65,14.55,13.04,26.27,16.2,40.69c0.34,1.58,2.75,0.91,2.41-0.66
			c-2.94-13.44-11.68-24.5-15.47-37.64c-2.47-8.57-2.65-18.24-3.13-27.11c-0.49-9-0.27-18.03,0.66-26.99
			c1.71-16.44,8.91-32.66,16.51-47.12c7.78-14.79,17.34-28.6,27.42-41.91C304.54,330.19,302.37,328.95,301.41,330.21L301.41,330.21z
			"/>
	</g>
</g>
<g>
	<g>
		<path class="st0" d="M345.03,504.76c-4.83-25.69-10.46-51.54-9.65-77.82c0.83-27.02,10.63-51.82,24.88-74.49
			c11.31-18,25.1-34.62,33.67-54.23c8.79-20.12,8.66-41.34,1.23-61.87c-0.82-2.26-4.44-1.28-3.62,1
			c7.98,22.06,6.81,43.73-3.53,64.73c-9.51,19.33-23.65,36.01-34.66,54.45c-13.17,22.06-20.98,46.23-21.78,71.97
			c-0.8,26,5.06,51.86,9.83,77.25C341.86,508.13,345.47,507.12,345.03,504.76L345.03,504.76z"/>
	</g>
</g>
<g>
	<g>
		<path class="st0" d="M364.27,446.44c-2.65-16.52-2.27-32.91,2.13-49.09c4.2-15.45,11.67-29.83,18.78-44.09
			c7.16-14.36,15.06-28.41,18.35-44.27c3.13-15.1,1.13-30.51-2.5-45.32c-0.38-1.57-2.79-0.9-2.41,0.67
			c3.93,16.05,5.48,32.11,1.52,48.31c-4.15,16.99-13.8,32.53-21.47,48.1c-6.36,12.91-12.32,26.07-15.76,40.09
			c-3.73,15.21-3.52,30.88-1.05,46.26C362.11,448.7,364.52,448.02,364.27,446.44L364.27,446.44z"/>
	</g>
</g>
<g>
	<g>
		<path class="st0" d="M414.08,242.4c2.51,13.57,3.14,27.45,2.92,41.23c-0.22,13.99-1.28,28.5-5.49,41.92
			c-3.8,12.12-11.27,22.72-17.49,33.67c-6.25,11-10.72,22.6-11.32,35.34c-0.08,1.61,2.42,1.6,2.5,0
			c1.3-27.59,23.04-46.68,29.9-72.42c3.45-12.94,4.21-26.77,4.42-40.1c0.21-13.45-0.59-27.05-3.04-40.3
			C416.2,240.15,413.79,240.82,414.08,242.4L414.08,242.4z"/>
	</g>
</g>
<g>
	<g>
		<path class="st0" d="M337.08,458.8c-7.88-30.7-27.03-57.57-25.41-90.36c0.12-2.42-3.63-2.41-3.75,0
			c-0.79,16.04,2.83,31.16,8.62,46.02c5.87,15.08,12.89,29.6,16.93,45.34C334.07,462.14,337.68,461.15,337.08,458.8L337.08,458.8z"
			/>
	</g>
</g>
<g>
	<g>
		<path class="st0" d="M394.14,379.84c-12.39,20.89-9.2,46.15-1.55,68.11c7.75,22.26,20.39,43.17,35.59,61.13
			c3.27,3.86,8.78-1.71,5.54-5.54c-14.04-16.6-25.54-35.92-33.08-56.31c-7.46-20.16-11.23-44.04,0.27-63.43
			C403.49,379.43,396.72,375.5,394.14,379.84L394.14,379.84z"/>
	</g>
</g>
<g>
	<g>
		<path class="st0" d="M434.35,320.5c12.97,28.45,11.65,61.44,1.38,90.5c-5.04,14.26-10.59,27.75-13.21,42.76
			c-2.6,14.92-2.71,30.14-2.22,45.24c0.05,1.61,2.55,1.61,2.5,0c-0.52-15.98-0.22-31.93,2.69-47.69
			c2.85-15.43,9.33-29.33,14.17-44.12c9.29-28.39,9.33-60.54-3.16-87.94C435.84,317.77,433.68,319.04,434.35,320.5L434.35,320.5z"/>
	</g>
</g>
<g>
	<g>
		<path class="st0" d="M464.21,496.02c-14.93-17.21-17.09-43.5-18.26-65.23c-1.23-22.71,0.28-45.39,0.32-68.1c0-1.61-2.5-1.61-2.5,0
			c-0.04,23.62-1.54,47.19-0.17,70.81c1.26,21.67,4.02,47.2,18.84,64.29C463.5,499.01,465.26,497.23,464.21,496.02L464.21,496.02z"
			/>
	</g>
</g>
<g>
	<g>
		<path class="st0" d="M476.87,430.69c19.26,30.53-6.15,65.49,3.01,97.88c0.44,1.55,2.85,0.89,2.41-0.66
			c-9.25-32.69,16.34-67.42-3.26-98.48C478.17,428.07,476,429.32,476.87,430.69L476.87,430.69z"/>
	</g>
</g>
<g>
	<g>
		<path class="st0" d="M478.11,437.21c11.58,14.99,13.14,34.77,17.37,52.6c2.23,9.38,4.69,18.6,8.13,27.62
			c3.59,9.42,7.92,18.55,11.78,27.86c0.61,1.47,3.03,0.83,2.41-0.66c-3.86-9.31-8.11-18.46-11.78-27.86
			c-3.87-9.91-6.45-20.19-8.81-30.54c-4-17.51-6-36.11-17.33-50.77C478.89,434.17,477.14,435.95,478.11,437.21L478.11,437.21z"/>
	</g>
</g>
<g>
	<g>
		<path class="st0" d="M531.79,534.6c-13.7-31.04-17.17-65.5-21.74-98.77c-0.33-2.39-3.94-1.37-3.62,1
			c4.62,33.66,8.26,68.27,22.12,99.67C529.52,538.7,532.75,536.79,531.79,534.6L531.79,534.6z"/>
	</g>
</g>
<g>
	<g>
		<path class="st0" d="M488.43,123.63c19.75-37.24,45.5-72.4,82.06-94.59c1.38-0.83,0.12-3-1.26-2.16
			c-36.92,22.4-63.01,57.87-82.96,95.49C485.51,123.79,487.67,125.06,488.43,123.63L488.43,123.63z"/>
	</g>
</g>
<g>
	<g>
		<path class="st0" d="M534.51,105.58c5.91-17.29,5.16-36.42,6.31-54.43c0.1-1.61-2.4-1.6-2.5,0c-1.14,17.81-0.38,36.68-6.22,53.76
			C531.57,106.45,533.99,107.1,534.51,105.58L534.51,105.58z"/>
	</g>
</g>
<g>
	<g>
		<path class="st0" d="M541.55,101.93c14.67-14.9,24.9-33.64,41.04-47.16c17.78-14.9,39.95-20.44,61.75-26.64
			c1.55-0.44,0.89-2.85-0.66-2.41c-21.9,6.23-43.04,11.95-61.36,26.09c-17.17,13.25-27.47,33.07-42.54,48.36
			C538.65,101.31,540.42,103.08,541.55,101.93L541.55,101.93z"/>
	</g>
</g>
<g>
	<g>
		<path class="st0" d="M579.1,93.6c12.93-14.16,27.75-26.38,45.66-33.62c17.97-7.26,37.66-8.78,56.85-8.83c1.61,0,1.61-2.5,0-2.5
			c-19.52,0.05-39.18,1.78-57.51,8.92c-18.35,7.15-33.61,19.86-46.77,34.26C576.24,93.02,578.01,94.79,579.1,93.6L579.1,93.6z"/>
	</g>
</g>
<g>
	<g>
		<path class="st0" d="M622.41,91.84c29.25-9.16,57.24-21.67,88.44-21.89c1.61-0.01,1.61-2.51,0-2.5
			c-31.42,0.22-59.64,12.75-89.11,21.98C620.21,89.9,620.87,92.32,622.41,91.84L622.41,91.84z"/>
	</g>
</g>
<g>
	<g>
		<path class="st0" d="M389.51,173.3c11.18-3.08,22.61-5.26,34.23-4.05c12.5,1.3,23.4,7.84,32.43,16.26
			c1.18,1.1,2.95-0.67,1.77-1.77c-9.25-8.62-19.93-14.83-32.54-16.77c-12.24-1.88-24.79,0.67-36.57,3.92
			C387.29,171.32,387.95,173.73,389.51,173.3L389.51,173.3z"/>
	</g>
</g>
<g>
	<g>
		<path class="st0" d="M419.96,159.28c25.28-4.52,50.83-5.02,75.4,3.53c19.51,6.79,33.9,22.4,50.57,33.88
			c2,1.38,3.87-1.88,1.89-3.24c-17.14-11.8-31.58-26.94-51.47-34.26c-24.84-9.15-51.79-8.11-77.4-3.53
			C416.58,156.09,417.59,159.7,419.96,159.28L419.96,159.28z"/>
	</g>
</g>
<g>
	<g>
		<path class="st0" d="M469.92,134.65c15.98-3.1,32.05-2.64,47.68,2.03c13.87,4.14,26.52,11.53,38.5,19.51
			c22.5,15,43.69,33.58,70.59,40.08c1.57,0.38,2.23-2.03,0.66-2.41c-27.79-6.71-49.58-26.47-72.93-41.77
			c-11.96-7.84-24.67-14.56-38.47-18.5c-15.24-4.35-31.21-4.35-46.69-1.35C467.68,132.55,468.35,134.96,469.92,134.65L469.92,134.65
			z"/>
	</g>
</g>
<g>
	<g>
		<path class="st0" d="M565,201.53c28.33-2.16,56.49-6.26,84.98-4.38c27.57,1.82,59.63,10.79,64.89,42.11
			c0.27,1.59,2.67,0.91,2.41-0.66c-5.11-30.44-34.71-40.73-61.92-43.5c-30.2-3.07-60.3,1.63-90.36,3.93
			C563.4,199.15,563.39,201.65,565,201.53L565,201.53z"/>
	</g>
</g>
<g>
	<g>
		<path class="st0" d="M553.15,102.95c18.69-0.27,35.13,6.04,49.76,17.46c13.31,10.38,24.56,23.14,37.45,34.01
			c14.58,12.29,32.61,18.16,48,29.1c18.33,13.03,22.44,35.16,25.91,55.92c0.4,2.38,4.01,1.37,3.62-1
			c-3.38-20.25-7.41-40.98-23.67-55.07c-7.47-6.47-16.57-10.84-25.33-15.25c-9.71-4.89-18.6-10.23-26.93-17.25
			c-13.32-11.23-24.91-24.38-38.79-34.97c-14.62-11.16-31.6-16.96-50.01-16.7C550.73,99.23,550.73,102.98,553.15,102.95
			L553.15,102.95z"/>
	</g>
</g>
<g>
	<g>
		<path class="st0" d="M605.16,123c-0.44,14.09,4.92,28.05,11.35,40.34c6.66,12.72,16.08,25.58,28.76,32.81
			c1.4,0.8,2.66-1.36,1.26-2.16c-12.02-6.85-20.59-18.77-27.18-30.65c-6.69-12.06-12.13-26.35-11.69-40.34
			C607.71,121.39,605.21,121.39,605.16,123L605.16,123z"/>
	</g>
</g>
<g>
	<g>
		<path class="st0" d="M641.35,96.8c17.52,37.88,48.88,73.24,89.9,85.46c2.32,0.69,3.31-2.93,1-3.62
			c-40.11-11.95-70.55-46.74-87.65-83.74C643.57,92.71,640.34,94.62,641.35,96.8L641.35,96.8z"/>
	</g>
</g>
<g>
	<g>
		<path class="st0" d="M646.51,158.55c8.15,4.27,17.63,6.02,26.61,7.54c9.68,1.64,19.76,2.85,29.58,2.19c1.6-0.11,1.61-2.61,0-2.5
			c-9.17,0.61-18.5-0.49-27.55-1.88c-9.17-1.41-19.09-3.16-27.39-7.51C646.35,155.64,645.08,157.8,646.51,158.55L646.51,158.55z"/>
	</g>
</g>
<g>
	<g>
		<path class="st0" d="M535.49,197.72c38.65,17.23,69.11,57.23,75.38,99.16c0.36,2.38,3.97,1.37,3.62-1
			c-6.39-42.75-37.7-83.83-77.1-101.4C535.19,193.51,533.29,196.74,535.49,197.72L535.49,197.72z"/>
	</g>
</g>
<g>
	<g>
		<path class="st0" d="M593.62,249.41c13.35,9.41,28.39,16.29,42.42,24.6c14.18,8.4,31.12,18.98,37.06,35.25
			c0.55,1.5,2.96,0.85,2.41-0.66c-5.61-15.38-20.3-25.59-33.61-33.94c-15.35-9.63-32.19-16.94-47.01-27.4
			C593.56,246.32,592.31,248.48,593.62,249.41L593.62,249.41z"/>
	</g>
</g>
<g>
	<g>
		<path class="st0" d="M645.47,242.11c9.34,5.25,18.63,10.6,27.12,17.18c8.89,6.89,17.82,16.03,19.26,27.69c0.2,1.58,2.7,1.6,2.5,0
			c-2.89-23.28-29.4-36.79-47.62-47.03C645.32,239.16,644.06,241.32,645.47,242.11L645.47,242.11z"/>
	</g>
</g>
<g>
	<g>
		<path class="st0" d="M483.72,204.19c50.43,9.61,85.41,50.18,113.77,90c1.39,1.95,4.64,0.08,3.24-1.89
			c-28.9-40.59-64.61-81.93-116.01-91.73C482.35,200.13,481.34,203.74,483.72,204.19L483.72,204.19z"/>
	</g>
</g>
<g>
	<g>
		<path class="st0" d="M401.87,205.36c19.28,15.03,41.81,24.85,64.67,33.09c24.12,8.69,43.73,23.14,62.75,40.02
			c1.2,1.07,2.98-0.7,1.77-1.77c-16.96-15.05-34.65-29-55.81-37.67c-12.17-4.99-24.63-9.04-36.6-14.56
			c-12.36-5.7-24.25-12.52-35-20.89C402.38,202.61,400.6,204.37,401.87,205.36L401.87,205.36z"/>
	</g>
</g>
<g>
	<g>
		<path class="st0" d="M427.98,248.19c44.97,47.89,104.27,78.47,160.05,111.68c1.39,0.83,2.65-1.33,1.26-2.16
			c-55.59-33.1-114.72-63.55-159.54-111.29C428.64,245.24,426.87,247.01,427.98,248.19L427.98,248.19z"/>
	</g>
</g>
<g>
	<g>
		<path class="st0" d="M513.18,278.92c20.42,19.32,44.09,35.43,60.36,58.76c15.23,21.85,24.11,48.13,45.13,65.53
			c1.85,1.53,4.52-1.11,2.65-2.65c-21.09-17.45-30.22-44.22-45.53-66.18c-16.07-23.05-39.78-39.02-59.96-58.11
			C514.07,274.6,511.42,277.25,513.18,278.92L513.18,278.92z"/>
	</g>
</g>
<g>
	<g>
		<path class="st0" d="M598.85,309.59c4.52,23.09,13.59,46.52,29.05,64.53c0.53,0.61,1.41-0.28,0.88-0.88
			c-15.33-17.85-24.25-41.1-28.73-63.98C599.9,308.47,598.69,308.8,598.85,309.59L598.85,309.59z"/>
	</g>
</g>
<g>
	<g>
		<path class="st0" d="M485.37,350.95c31.55,17.54,67.17,17.26,102.24,17.25c5.05,0,5.05-7.84,0-7.84
			c-33.61,0.02-68.02,0.65-98.29-16.18C484.9,341.73,480.95,348.5,485.37,350.95L485.37,350.95z"/>
	</g>
</g>
<g>
	<g>
		<path class="st0" d="M486.14,300.9c3.85,16.1,12.47,29.44,25.41,39.72c12.62,10.03,27.68,16.55,42.01,23.7
			c1.44,0.72,2.71-1.44,1.26-2.16c-13.54-6.75-27.45-13-39.72-21.95c-13.59-9.91-22.65-23.63-26.55-39.97
			C488.18,298.67,485.77,299.34,486.14,300.9L486.14,300.9z"/>
	</g>
</g>
<g>
	<g>
		<path class="st0" d="M553.69,389.06c20.25,4.34,45.02,2.22,61.84,16.23c1.84,1.54,4.51-1.1,2.65-2.65
			c-17.55-14.62-42.38-12.67-63.49-17.19C552.33,384.94,551.33,388.55,553.69,389.06L553.69,389.06z"/>
	</g>
</g>
<g>
	<g>
		<path class="st0" d="M482.54,348.65c28.66,13.61,53.48,35.18,73.74,59.38c20.84,24.9,38.56,55.84,40.53,88.89
			c0.1,1.6,2.6,1.61,2.5,0c-1.93-32.38-18.55-62.16-38.34-87.08c-20.61-25.94-47.1-49.08-77.17-63.35
			C482.35,345.8,481.08,347.96,482.54,348.65L482.54,348.65z"/>
	</g>
</g>
<g>
	<g>
		<path class="st0" d="M488.55,371.43c42.07,45.15,93.23,90.82,103.08,155.06c0.24,1.59,2.65,0.91,2.41-0.66
			c-9.91-64.66-61.38-110.73-103.72-156.17C489.22,368.48,487.46,370.25,488.55,371.43L488.55,371.43z"/>
	</g>
</g>
<g>
	<g>
		<path class="st0" d="M511.48,442.86c33.32,16.44,59.1,49.7,73.79,83.19c2.03,4.62,8.77,0.63,6.76-3.95
			c-15.18-34.58-42.22-69.04-76.6-86C510.92,433.87,506.95,440.63,511.48,442.86L511.48,442.86z"/>
	</g>
</g>
<g>
	<g>
		<path class="st0" d="M525.11,472.74c22.09,17.59,50.01,33.82,61.3,61.07c0.61,1.47,3.03,0.83,2.41-0.66
			c-11.52-27.81-39.38-44.21-61.94-62.18C525.63,469.98,523.84,471.73,525.11,472.74L525.11,472.74z"/>
	</g>
</g>
<g>
	<g>
		<path class="st0" d="M544.16,516.8c9.55,4.69,17.13,11.31,23.15,20.06c5.75,8.36,10,17.71,15.04,26.49
			c0.8,1.4,2.96,0.14,2.16-1.26c-5.27-9.17-9.76-18.82-15.77-27.55c-5.97-8.67-13.89-15.27-23.32-19.9
			C543.98,513.93,542.71,516.09,544.16,516.8L544.16,516.8z"/>
	</g>
</g>
</svg>
